<svg width="674" height="337" viewBox="0 0 674 337" fill="none" xmlns="http://www.w3.org/2000/svg">
<path d="M274 283C277.866 283 281 286.134 281 290C281 293.866 277.866 297 274 297C270.134 297 267 293.866 267 290C267 286.134 270.134 283 274 283Z" stroke="white" stroke-width="6"/>
<path d="M146 103C147.913 103.671 149.205 103.863 152 104M142 93V94.5C142 95.0523 142.448 95.5 143 95.5H144.5C145.052 95.5 145.5 95.0523 145.5 94.5V94" stroke="white" stroke-width="2"/>
<path d="M121.5 91.9999L118 96.4999C116.584 98.927 115.518 100.564 114.579 102.24C112.68 105.631 113.65 109.788 116.286 112.643V112.643C117.412 113.864 118.809 114.809 120.359 115.403C123.954 116.779 128.305 118.22 134 117M121.5 91.9999L133 84M121.5 91.9999C119.601 103.798 122.001 109.369 134 117M121.5 91.9999C102.741 91.8896 90.8372 85.7977 89.9998 80C89.5219 76.6907 97.9521 73.4836 108.5 74.182M145.5 111.5C149.009 109.259 149.677 108.329 151.997 105.982C152.979 104.989 153.819 103.862 154.444 102.613V102.613C156.064 99.3725 156.281 95.5107 154.411 92.4083C153.508 90.9091 152.471 89.4569 151.271 88.1533C149.077 85.7705 145.812 84.8835 142.58 84.6607L133 84M145.5 111.5L134 117M145.5 111.5C133.036 105.274 130.704 99.0442 133 84M133 84C134.839 71.7896 122.857 61.7585 111.512 59.811C108.256 59.2521 104.804 60.8334 105.444 64.0742C105.91 66.4316 107.065 69.709 108.5 74.182M133 84C125.561 77.4409 116.432 74.7073 108.5 74.182" stroke="white" stroke-width="5"/>
<path d="M156 82.5256C155 81.0256 155 80.5255 153 80.0255C151 79.5255 148 86.5573 148 86.5573" stroke="white" stroke-width="2"/>
<path d="M103.068 192V122.182H131.023C136.159 122.182 140.443 122.943 143.875 124.466C147.307 125.989 149.886 128.102 151.614 130.807C153.341 133.489 154.205 136.58 154.205 140.08C154.205 142.807 153.659 145.205 152.568 147.273C151.477 149.318 149.977 151 148.068 152.318C146.182 153.614 144.023 154.534 141.591 155.08V155.761C144.25 155.875 146.739 156.625 149.057 158.011C151.398 159.398 153.295 161.341 154.75 163.841C156.205 166.318 156.932 169.273 156.932 172.705C156.932 176.409 156.011 179.716 154.17 182.625C152.352 185.511 149.659 187.795 146.091 189.477C142.523 191.159 138.125 192 132.898 192H103.068ZM117.83 179.932H129.864C133.977 179.932 136.977 179.148 138.864 177.58C140.75 175.989 141.693 173.875 141.693 171.239C141.693 169.307 141.227 167.602 140.295 166.125C139.364 164.648 138.034 163.489 136.307 162.648C134.602 161.807 132.568 161.386 130.205 161.386H117.83V179.932ZM117.83 151.398H128.773C130.795 151.398 132.591 151.045 134.159 150.341C135.75 149.614 137 148.591 137.909 147.273C138.841 145.955 139.307 144.375 139.307 142.534C139.307 140.011 138.409 137.977 136.614 136.432C134.841 134.886 132.318 134.114 129.045 134.114H117.83V151.398ZM174.217 192V122.182H221.262V134.352H188.978V150.989H218.842V163.159H188.978V179.83H221.399V192H174.217ZM240.678 192V122.182H287.724V134.352H255.44V150.989H285.303V163.159H255.44V179.83H287.86V192H240.678ZM345.014 142.261C344.742 139.511 343.571 137.375 341.503 135.852C339.435 134.33 336.628 133.568 333.083 133.568C330.674 133.568 328.639 133.909 326.98 134.591C325.321 135.25 324.049 136.17 323.162 137.352C322.299 138.534 321.867 139.875 321.867 141.375C321.821 142.625 322.083 143.716 322.651 144.648C323.242 145.58 324.049 146.386 325.071 147.068C326.094 147.727 327.276 148.307 328.617 148.807C329.958 149.284 331.389 149.693 332.912 150.034L339.185 151.534C342.23 152.216 345.026 153.125 347.571 154.261C350.117 155.398 352.321 156.795 354.185 158.455C356.049 160.114 357.492 162.068 358.514 164.318C359.56 166.568 360.094 169.148 360.117 172.057C360.094 176.33 359.003 180.034 356.844 183.17C354.708 186.284 351.617 188.705 347.571 190.432C343.549 192.136 338.696 192.989 333.014 192.989C327.378 192.989 322.469 192.125 318.287 190.398C314.128 188.67 310.878 186.114 308.537 182.727C306.219 179.318 305.003 175.102 304.889 170.08H319.174C319.333 172.42 320.003 174.375 321.185 175.943C322.389 177.489 323.992 178.659 325.992 179.455C328.014 180.227 330.299 180.614 332.844 180.614C335.344 180.614 337.514 180.25 339.355 179.523C341.219 178.795 342.662 177.784 343.685 176.489C344.708 175.193 345.219 173.705 345.219 172.023C345.219 170.455 344.753 169.136 343.821 168.068C342.912 167 341.571 166.091 339.799 165.341C338.049 164.591 335.901 163.909 333.355 163.295L325.753 161.386C319.867 159.955 315.219 157.716 311.81 154.67C308.401 151.625 306.708 147.523 306.73 142.364C306.708 138.136 307.833 134.443 310.105 131.284C312.401 128.125 315.549 125.659 319.549 123.886C323.549 122.114 328.094 121.227 333.185 121.227C338.367 121.227 342.889 122.114 346.753 123.886C350.639 125.659 353.662 128.125 355.821 131.284C357.98 134.443 359.094 138.102 359.162 142.261H345.014ZM375.067 134.352V122.182H432.408V134.352H411.033V192H396.442V134.352H375.067ZM453.034 192H437.215L461.318 122.182H480.34L504.409 192H488.59L471.102 138.136H470.556L453.034 192ZM452.045 164.557H489.409V176.08H452.045V164.557ZM509.276 122.182H525.81L541.731 152.25H542.412L558.333 122.182H574.867L549.401 167.318V192H534.742V167.318L509.276 122.182Z" fill="white"/>
<path d="M422.5 94.5V47L380.5 21L341 47V94.5M422.5 94.5L380.5 118.5L341 94.5M422.5 94.5L463 118.5M341 94.5L299 118.5L259 94.5L219 118.5" stroke="white" stroke-width="5"/>
<path d="M211 195.5C211.519 219.99 237.09 218.917 236.5 195.5M259 195.5V241.5C264.428 245.384 267.749 247.27 274.5 250C271.5 275 273.118 281.603 286.5 269L289 278C276.55 337.142 340.242 322.681 318.5 276L316.5 265C329.115 267.83 332.928 264.23 332.5 246.5L340.5 241.5M340.5 241.5V231.5M340.5 241.5L371 260C349.028 318.745 414.504 315.208 391.5 260C402.63 252.775 408.87 248.725 420 241.5V231.5" stroke="white" stroke-width="5"/>
<path d="M111.5 109C112.328 109 113 109.672 113 110.5C113 111.328 112.328 112 111.5 112C110.672 112 110 111.328 110 110.5C110 109.672 110.672 109 111.5 109Z" stroke="white" stroke-width="3"/>
<path d="M156 81.5256C156.552 81.5256 157 81.9734 157 82.5256C157 83.0779 156.552 83.5256 156 83.5256C155.448 83.5256 155 83.0779 155 82.5256C155 81.9734 155.448 81.5256 156 81.5256Z" stroke="white" stroke-width="2"/>
<path d="M154 79.5256C153 78.0256 153 77.5255 151 77.0255C149 76.5255 146 83.5573 146 83.5573" stroke="white" stroke-width="2"/>
<path d="M154 78.5256C154.552 78.5256 155 78.9734 155 79.5256C155 80.0779 154.552 80.5256 154 80.5256C153.448 80.5256 153 80.0779 153 79.5256C153 78.9734 153.448 78.5256 154 78.5256Z" stroke="white" stroke-width="2"/>
<path d="M307 289C310.866 289 314 292.134 314 296C314 299.866 310.866 303 307 303C303.134 303 300 299.866 300 296C300 292.134 303.134 289 307 289Z" stroke="white" stroke-width="6"/>
<path d="M123 220.5H277.5" stroke="white" stroke-width="6"/>
<path d="M341 192V211" stroke="white" stroke-width="6"/>
<path d="M420 192V211" stroke="white" stroke-width="6"/>
<path d="M318.918 217.656H315.185C315.116 217.173 314.977 216.744 314.767 216.369C314.557 215.989 314.287 215.665 313.957 215.398C313.628 215.131 313.247 214.926 312.815 214.784C312.389 214.642 311.926 214.571 311.426 214.571C310.523 214.571 309.736 214.795 309.065 215.244C308.395 215.687 307.875 216.335 307.506 217.188C307.136 218.034 306.952 219.062 306.952 220.273C306.952 221.517 307.136 222.562 307.506 223.409C307.881 224.256 308.403 224.895 309.074 225.327C309.744 225.759 310.52 225.974 311.401 225.974C311.895 225.974 312.352 225.909 312.773 225.778C313.199 225.648 313.577 225.457 313.906 225.207C314.236 224.952 314.509 224.642 314.724 224.278C314.946 223.915 315.099 223.5 315.185 223.034L318.918 223.051C318.821 223.852 318.58 224.625 318.193 225.369C317.813 226.108 317.298 226.77 316.651 227.355C316.009 227.935 315.241 228.395 314.349 228.736C313.463 229.071 312.46 229.239 311.341 229.239C309.784 229.239 308.392 228.886 307.165 228.182C305.943 227.477 304.977 226.457 304.267 225.122C303.562 223.787 303.21 222.17 303.21 220.273C303.21 218.369 303.568 216.75 304.284 215.415C305 214.08 305.972 213.062 307.199 212.364C308.426 211.659 309.807 211.307 311.341 211.307C312.352 211.307 313.29 211.449 314.153 211.733C315.023 212.017 315.793 212.432 316.463 212.977C317.134 213.517 317.679 214.179 318.099 214.963C318.526 215.747 318.798 216.645 318.918 217.656ZM324.444 229V211.545H328.134V218.747H335.626V211.545H339.308V229H335.626V221.79H328.134V229H324.444ZM348.921 211.545V229H345.23V211.545H348.921ZM354.837 229V211.545H358.527V225.957H366.01V229H354.837ZM371.334 229V211.545H375.024V225.957H382.507V229H371.334ZM396.266 229V211.545H399.956V218.747H407.448V211.545H411.129V229H407.448V221.79H399.956V229H396.266ZM433.092 220.273C433.092 222.176 432.731 223.795 432.009 225.131C431.294 226.466 430.316 227.486 429.078 228.19C427.845 228.889 426.458 229.239 424.919 229.239C423.367 229.239 421.975 228.886 420.742 228.182C419.509 227.477 418.535 226.457 417.819 225.122C417.103 223.787 416.745 222.17 416.745 220.273C416.745 218.369 417.103 216.75 417.819 215.415C418.535 214.08 419.509 213.062 420.742 212.364C421.975 211.659 423.367 211.307 424.919 211.307C426.458 211.307 427.845 211.659 429.078 212.364C430.316 213.062 431.294 214.08 432.009 215.415C432.731 216.75 433.092 218.369 433.092 220.273ZM429.35 220.273C429.35 219.04 429.166 218 428.796 217.153C428.433 216.307 427.919 215.665 427.254 215.227C426.589 214.79 425.811 214.571 424.919 214.571C424.026 214.571 423.248 214.79 422.583 215.227C421.919 215.665 421.401 216.307 421.032 217.153C420.669 218 420.487 219.04 420.487 220.273C420.487 221.506 420.669 222.545 421.032 223.392C421.401 224.239 421.919 224.881 422.583 225.318C423.248 225.756 424.026 225.974 424.919 225.974C425.811 225.974 426.589 225.756 427.254 225.318C427.919 224.881 428.433 224.239 428.796 223.392C429.166 222.545 429.35 221.506 429.35 220.273ZM437.244 214.588V211.545H451.579V214.588H446.235V229H442.588V214.588H437.244ZM456.82 229V211.545H468.581V214.588H460.51V218.747H467.976V221.79H460.51V225.957H468.615V229H456.82ZM474.395 229V211.545H478.086V225.957H485.568V229H474.395Z" fill="white"/>
</svg>
