<svg width="674" height="337" viewBox="0 0 674 337" fill="none" xmlns="http://www.w3.org/2000/svg">
<path d="M274 283C277.866 283 281 286.134 281 290C281 293.866 277.866 297 274 297C270.134 297 267 293.866 267 290C267 286.134 270.134 283 274 283Z" stroke="#AB8A62" stroke-width="6"/>
<path d="M146 103C147.913 103.671 149.205 103.863 152 104M142 93V94.5C142 95.0523 142.448 95.5 143 95.5H144.5C145.052 95.5 145.5 95.0523 145.5 94.5V94" stroke="#AB8A62" stroke-width="2"/>
<path d="M121.5 91.9999L118 96.4999C116.584 98.927 115.518 100.564 114.579 102.24C112.68 105.631 113.65 109.788 116.286 112.643V112.643C117.412 113.864 118.809 114.809 120.359 115.403C123.954 116.779 128.305 118.22 134 117M121.5 91.9999L133 84M121.5 91.9999C119.601 103.798 122.001 109.369 134 117M121.5 91.9999C102.741 91.8896 90.8372 85.7977 89.9998 80C89.5219 76.6907 97.9521 73.4836 108.5 74.182M145.5 111.5C149.009 109.259 149.677 108.329 151.997 105.982C152.979 104.989 153.819 103.862 154.444 102.613V102.613C156.064 99.3725 156.281 95.5107 154.411 92.4083C153.508 90.9091 152.471 89.4569 151.271 88.1533C149.077 85.7705 145.812 84.8835 142.58 84.6607L133 84M145.5 111.5L134 117M145.5 111.5C133.036 105.274 130.704 99.0442 133 84M133 84C134.839 71.7896 122.857 61.7585 111.512 59.811C108.256 59.2521 104.804 60.8334 105.444 64.0742C105.91 66.4316 107.065 69.709 108.5 74.182M133 84C125.561 77.4409 116.432 74.7073 108.5 74.182" stroke="#AB8A62" stroke-width="5"/>
<path d="M156 82.5256C155 81.0256 155 80.5255 153 80.0255C151 79.5255 148 86.5573 148 86.5573" stroke="#AB8A62" stroke-width="2"/>
<path d="M103.068 192V122.182H131.023C136.159 122.182 140.443 122.943 143.875 124.466C147.307 125.989 149.886 128.102 151.614 130.807C153.341 133.489 154.205 136.58 154.205 140.08C154.205 142.807 153.659 145.205 152.568 147.273C151.477 149.318 149.977 151 148.068 152.318C146.182 153.614 144.023 154.534 141.591 155.08V155.761C144.25 155.875 146.739 156.625 149.057 158.011C151.398 159.398 153.295 161.341 154.75 163.841C156.205 166.318 156.932 169.273 156.932 172.705C156.932 176.409 156.011 179.716 154.17 182.625C152.352 185.511 149.659 187.795 146.091 189.477C142.523 191.159 138.125 192 132.898 192H103.068ZM117.83 179.932H129.864C133.977 179.932 136.977 179.148 138.864 177.58C140.75 175.989 141.693 173.875 141.693 171.239C141.693 169.307 141.227 167.602 140.295 166.125C139.364 164.648 138.034 163.489 136.307 162.648C134.602 161.807 132.568 161.386 130.205 161.386H117.83V179.932ZM117.83 151.398H128.773C130.795 151.398 132.591 151.045 134.159 150.341C135.75 149.614 137 148.591 137.909 147.273C138.841 145.955 139.307 144.375 139.307 142.534C139.307 140.011 138.409 137.977 136.614 136.432C134.841 134.886 132.318 134.114 129.045 134.114H117.83V151.398ZM174.217 192V122.182H221.262V134.352H188.978V150.989H218.842V163.159H188.978V179.83H221.399V192H174.217ZM240.678 192V122.182H287.724V134.352H255.44V150.989H285.303V163.159H255.44V179.83H287.86V192H240.678ZM345.014 142.261C344.742 139.511 343.571 137.375 341.503 135.852C339.435 134.33 336.628 133.568 333.083 133.568C330.674 133.568 328.639 133.909 326.98 134.591C325.321 135.25 324.049 136.17 323.162 137.352C322.299 138.534 321.867 139.875 321.867 141.375C321.821 142.625 322.083 143.716 322.651 144.648C323.242 145.58 324.049 146.386 325.071 147.068C326.094 147.727 327.276 148.307 328.617 148.807C329.958 149.284 331.389 149.693 332.912 150.034L339.185 151.534C342.23 152.216 345.026 153.125 347.571 154.261C350.117 155.398 352.321 156.795 354.185 158.455C356.049 160.114 357.492 162.068 358.514 164.318C359.56 166.568 360.094 169.148 360.117 172.057C360.094 176.33 359.003 180.034 356.844 183.17C354.708 186.284 351.617 188.705 347.571 190.432C343.549 192.136 338.696 192.989 333.014 192.989C327.378 192.989 322.469 192.125 318.287 190.398C314.128 188.67 310.878 186.114 308.537 182.727C306.219 179.318 305.003 175.102 304.889 170.08H319.174C319.333 172.42 320.003 174.375 321.185 175.943C322.389 177.489 323.992 178.659 325.992 179.455C328.014 180.227 330.299 180.614 332.844 180.614C335.344 180.614 337.514 180.25 339.355 179.523C341.219 178.795 342.662 177.784 343.685 176.489C344.708 175.193 345.219 173.705 345.219 172.023C345.219 170.455 344.753 169.136 343.821 168.068C342.912 167 341.571 166.091 339.799 165.341C338.049 164.591 335.901 163.909 333.355 163.295L325.753 161.386C319.867 159.955 315.219 157.716 311.81 154.67C308.401 151.625 306.708 147.523 306.73 142.364C306.708 138.136 307.833 134.443 310.105 131.284C312.401 128.125 315.549 125.659 319.549 123.886C323.549 122.114 328.094 121.227 333.185 121.227C338.367 121.227 342.889 122.114 346.753 123.886C350.639 125.659 353.662 128.125 355.821 131.284C357.98 134.443 359.094 138.102 359.162 142.261H345.014ZM375.067 134.352V122.182H432.408V134.352H411.033V192H396.442V134.352H375.067ZM453.034 192H437.215L461.318 122.182H480.34L504.409 192H488.59L471.102 138.136H470.556L453.034 192ZM452.045 164.557H489.409V176.08H452.045V164.557ZM509.276 122.182H525.81L541.731 152.25H542.412L558.333 122.182H574.867L549.401 167.318V192H534.742V167.318L509.276 122.182Z" fill="black"/>
<path d="M422.5 94.5V47L380.5 21L341 47V94.5M422.5 94.5L380.5 118.5L341 94.5M422.5 94.5L463 118.5M341 94.5L299 118.5L259 94.5L219 118.5" stroke="#AB8A62" stroke-width="5"/>
<path d="M211 195.5C211.519 219.99 237.09 218.917 236.5 195.5M259 195.5V241.5C264.428 245.384 267.749 247.27 274.5 250C271.5 275 273.118 281.603 286.5 269L289 278C276.55 337.142 340.242 322.681 318.5 276L316.5 265C329.115 267.83 332.928 264.23 332.5 246.5L340.5 241.5M340.5 241.5V231.5M340.5 241.5L371 260C349.028 318.745 414.504 315.208 391.5 260C402.63 252.775 408.87 248.725 420 241.5V231.5" stroke="#AB8A62" stroke-width="5"/>
<path d="M111.5 109C112.328 109 113 109.672 113 110.5C113 111.328 112.328 112 111.5 112C110.672 112 110 111.328 110 110.5C110 109.672 110.672 109 111.5 109Z" stroke="#AB8A62" stroke-width="3"/>
<path d="M156 81.5256C156.552 81.5256 157 81.9734 157 82.5256C157 83.0779 156.552 83.5256 156 83.5256C155.448 83.5256 155 83.0779 155 82.5256C155 81.9734 155.448 81.5256 156 81.5256Z" stroke="#AB8A62" stroke-width="2"/>
<path d="M154 79.5256C153 78.0256 153 77.5255 151 77.0255C149 76.5255 146 83.5573 146 83.5573" stroke="#AB8A62" stroke-width="2"/>
<path d="M154 78.5256C154.552 78.5256 155 78.9734 155 79.5256C155 80.0779 154.552 80.5256 154 80.5256C153.448 80.5256 153 80.0779 153 79.5256C153 78.9734 153.448 78.5256 154 78.5256Z" stroke="#AB8A62" stroke-width="2"/>
<path d="M307 289C310.866 289 314 292.134 314 296C314 299.866 310.866 303 307 303C303.134 303 300 299.866 300 296C300 292.134 303.134 289 307 289Z" stroke="#AB8A62" stroke-width="6"/>
<path d="M123 220.5H277.5" stroke="black" stroke-width="6"/>
<path d="M341 193V201.5V210" stroke="#AB8A62" stroke-width="6"/>
<path d="M420 193V210" stroke="#AB8A62" stroke-width="6"/>
<mask id="path-16-outside-1_543_941" maskUnits="userSpaceOnUse" x="302" y="210" width="185" height="21" fill="black">
<rect fill="white" x="302" y="210" width="185" height="21"/>
<path d="M318.918 217.656H315.185C315.116 217.173 314.977 216.744 314.767 216.369C314.557 215.989 314.287 215.665 313.957 215.398C313.628 215.131 313.247 214.926 312.815 214.784C312.389 214.642 311.926 214.571 311.426 214.571C310.523 214.571 309.736 214.795 309.065 215.244C308.395 215.687 307.875 216.335 307.506 217.188C307.136 218.034 306.952 219.062 306.952 220.273C306.952 221.517 307.136 222.562 307.506 223.409C307.881 224.256 308.403 224.895 309.074 225.327C309.744 225.759 310.52 225.974 311.401 225.974C311.895 225.974 312.352 225.909 312.773 225.778C313.199 225.648 313.577 225.457 313.906 225.207C314.236 224.952 314.509 224.642 314.724 224.278C314.946 223.915 315.099 223.5 315.185 223.034L318.918 223.051C318.821 223.852 318.58 224.625 318.193 225.369C317.813 226.108 317.298 226.77 316.651 227.355C316.009 227.935 315.241 228.395 314.349 228.736C313.463 229.071 312.46 229.239 311.341 229.239C309.784 229.239 308.392 228.886 307.165 228.182C305.943 227.477 304.977 226.457 304.267 225.122C303.562 223.787 303.21 222.17 303.21 220.273C303.21 218.369 303.568 216.75 304.284 215.415C305 214.08 305.972 213.062 307.199 212.364C308.426 211.659 309.807 211.307 311.341 211.307C312.352 211.307 313.29 211.449 314.153 211.733C315.023 212.017 315.793 212.432 316.463 212.977C317.134 213.517 317.679 214.179 318.099 214.963C318.526 215.747 318.798 216.645 318.918 217.656ZM324.444 229V211.545H328.134V218.747H335.626V211.545H339.308V229H335.626V221.79H328.134V229H324.444ZM348.921 211.545V229H345.23V211.545H348.921ZM354.837 229V211.545H358.527V225.957H366.01V229H354.837ZM371.334 229V211.545H375.024V225.957H382.507V229H371.334ZM396.266 229V211.545H399.956V218.747H407.448V211.545H411.129V229H407.448V221.79H399.956V229H396.266ZM433.092 220.273C433.092 222.176 432.731 223.795 432.009 225.131C431.294 226.466 430.316 227.486 429.078 228.19C427.845 228.889 426.458 229.239 424.919 229.239C423.367 229.239 421.975 228.886 420.742 228.182C419.509 227.477 418.535 226.457 417.819 225.122C417.103 223.787 416.745 222.17 416.745 220.273C416.745 218.369 417.103 216.75 417.819 215.415C418.535 214.08 419.509 213.062 420.742 212.364C421.975 211.659 423.367 211.307 424.919 211.307C426.458 211.307 427.845 211.659 429.078 212.364C430.316 213.062 431.294 214.08 432.009 215.415C432.731 216.75 433.092 218.369 433.092 220.273ZM429.35 220.273C429.35 219.04 429.166 218 428.796 217.153C428.433 216.307 427.919 215.665 427.254 215.227C426.589 214.79 425.811 214.571 424.919 214.571C424.026 214.571 423.248 214.79 422.583 215.227C421.919 215.665 421.401 216.307 421.032 217.153C420.669 218 420.487 219.04 420.487 220.273C420.487 221.506 420.669 222.545 421.032 223.392C421.401 224.239 421.919 224.881 422.583 225.318C423.248 225.756 424.026 225.974 424.919 225.974C425.811 225.974 426.589 225.756 427.254 225.318C427.919 224.881 428.433 224.239 428.796 223.392C429.166 222.545 429.35 221.506 429.35 220.273ZM437.244 214.588V211.545H451.579V214.588H446.235V229H442.588V214.588H437.244ZM456.82 229V211.545H468.581V214.588H460.51V218.747H467.976V221.79H460.51V225.957H468.615V229H456.82ZM474.395 229V211.545H478.086V225.957H485.568V229H474.395Z"/>
</mask>
<path d="M318.918 217.656H315.185C315.116 217.173 314.977 216.744 314.767 216.369C314.557 215.989 314.287 215.665 313.957 215.398C313.628 215.131 313.247 214.926 312.815 214.784C312.389 214.642 311.926 214.571 311.426 214.571C310.523 214.571 309.736 214.795 309.065 215.244C308.395 215.687 307.875 216.335 307.506 217.188C307.136 218.034 306.952 219.062 306.952 220.273C306.952 221.517 307.136 222.562 307.506 223.409C307.881 224.256 308.403 224.895 309.074 225.327C309.744 225.759 310.52 225.974 311.401 225.974C311.895 225.974 312.352 225.909 312.773 225.778C313.199 225.648 313.577 225.457 313.906 225.207C314.236 224.952 314.509 224.642 314.724 224.278C314.946 223.915 315.099 223.5 315.185 223.034L318.918 223.051C318.821 223.852 318.58 224.625 318.193 225.369C317.813 226.108 317.298 226.77 316.651 227.355C316.009 227.935 315.241 228.395 314.349 228.736C313.463 229.071 312.46 229.239 311.341 229.239C309.784 229.239 308.392 228.886 307.165 228.182C305.943 227.477 304.977 226.457 304.267 225.122C303.562 223.787 303.21 222.17 303.21 220.273C303.21 218.369 303.568 216.75 304.284 215.415C305 214.08 305.972 213.062 307.199 212.364C308.426 211.659 309.807 211.307 311.341 211.307C312.352 211.307 313.29 211.449 314.153 211.733C315.023 212.017 315.793 212.432 316.463 212.977C317.134 213.517 317.679 214.179 318.099 214.963C318.526 215.747 318.798 216.645 318.918 217.656ZM324.444 229V211.545H328.134V218.747H335.626V211.545H339.308V229H335.626V221.79H328.134V229H324.444ZM348.921 211.545V229H345.23V211.545H348.921ZM354.837 229V211.545H358.527V225.957H366.01V229H354.837ZM371.334 229V211.545H375.024V225.957H382.507V229H371.334ZM396.266 229V211.545H399.956V218.747H407.448V211.545H411.129V229H407.448V221.79H399.956V229H396.266ZM433.092 220.273C433.092 222.176 432.731 223.795 432.009 225.131C431.294 226.466 430.316 227.486 429.078 228.19C427.845 228.889 426.458 229.239 424.919 229.239C423.367 229.239 421.975 228.886 420.742 228.182C419.509 227.477 418.535 226.457 417.819 225.122C417.103 223.787 416.745 222.17 416.745 220.273C416.745 218.369 417.103 216.75 417.819 215.415C418.535 214.08 419.509 213.062 420.742 212.364C421.975 211.659 423.367 211.307 424.919 211.307C426.458 211.307 427.845 211.659 429.078 212.364C430.316 213.062 431.294 214.08 432.009 215.415C432.731 216.75 433.092 218.369 433.092 220.273ZM429.35 220.273C429.35 219.04 429.166 218 428.796 217.153C428.433 216.307 427.919 215.665 427.254 215.227C426.589 214.79 425.811 214.571 424.919 214.571C424.026 214.571 423.248 214.79 422.583 215.227C421.919 215.665 421.401 216.307 421.032 217.153C420.669 218 420.487 219.04 420.487 220.273C420.487 221.506 420.669 222.545 421.032 223.392C421.401 224.239 421.919 224.881 422.583 225.318C423.248 225.756 424.026 225.974 424.919 225.974C425.811 225.974 426.589 225.756 427.254 225.318C427.919 224.881 428.433 224.239 428.796 223.392C429.166 222.545 429.35 221.506 429.35 220.273ZM437.244 214.588V211.545H451.579V214.588H446.235V229H442.588V214.588H437.244ZM456.82 229V211.545H468.581V214.588H460.51V218.747H467.976V221.79H460.51V225.957H468.615V229H456.82ZM474.395 229V211.545H478.086V225.957H485.568V229H474.395Z" fill="black"/>
<path d="M318.918 217.656V218.656H320.043L319.911 217.539L318.918 217.656ZM315.185 217.656L314.194 217.796L314.316 218.656H315.185V217.656ZM314.767 216.369L313.892 216.853L313.895 216.858L314.767 216.369ZM313.957 215.398L313.328 216.175L313.328 216.175L313.957 215.398ZM312.815 214.784L312.499 215.733L312.503 215.734L312.815 214.784ZM309.065 215.244L309.617 216.079L309.622 216.075L309.065 215.244ZM307.506 217.188L308.422 217.587L308.423 217.585L307.506 217.188ZM307.506 223.409L306.589 223.809L306.591 223.814L307.506 223.409ZM309.074 225.327L308.532 226.167L308.532 226.167L309.074 225.327ZM312.773 225.778L312.48 224.822L312.476 224.823L312.773 225.778ZM313.906 225.207L314.511 226.004L314.519 225.997L313.906 225.207ZM314.724 224.278L313.87 223.758L313.865 223.768L314.724 224.278ZM315.185 223.034L315.189 222.034L314.352 222.03L314.201 222.854L315.185 223.034ZM318.918 223.051L319.91 223.171L320.045 222.056L318.922 222.051L318.918 223.051ZM318.193 225.369L317.306 224.909L317.304 224.911L318.193 225.369ZM316.651 227.355L317.321 228.097L317.321 228.097L316.651 227.355ZM314.349 228.736L314.703 229.671L314.706 229.67L314.349 228.736ZM307.165 228.182L306.665 229.048L306.667 229.049L307.165 228.182ZM304.267 225.122L303.383 225.589L303.384 225.592L304.267 225.122ZM304.284 215.415L305.165 215.887L305.165 215.887L304.284 215.415ZM307.199 212.364L307.694 213.233L307.697 213.231L307.199 212.364ZM314.153 211.733L313.841 212.683L313.843 212.683L314.153 211.733ZM316.463 212.977L315.832 213.753L315.836 213.756L316.463 212.977ZM318.099 214.963L317.218 215.436L317.221 215.441L318.099 214.963ZM318.918 217.656V216.656H315.185V217.656V218.656H318.918V217.656ZM315.185 217.656L316.175 217.516C316.092 216.927 315.918 216.377 315.639 215.88L314.767 216.369L313.895 216.858C314.037 217.112 314.141 217.419 314.194 217.796L315.185 217.656ZM314.767 216.369L315.642 215.886C315.372 215.395 315.019 214.971 314.587 214.621L313.957 215.398L313.328 216.175C313.555 216.359 313.742 216.582 313.892 216.853L314.767 216.369ZM313.957 215.398L314.587 214.621C314.157 214.272 313.667 214.011 313.128 213.834L312.815 214.784L312.503 215.734C312.828 215.841 313.099 215.989 313.328 216.175L313.957 215.398ZM312.815 214.784L313.132 213.835C312.593 213.656 312.022 213.571 311.426 213.571V214.571V215.571C311.831 215.571 312.186 215.628 312.499 215.733L312.815 214.784ZM311.426 214.571V213.571C310.349 213.571 309.363 213.841 308.509 214.413L309.065 215.244L309.622 216.075C310.108 215.75 310.696 215.571 311.426 215.571V214.571ZM309.065 215.244L308.514 214.41C307.658 214.976 307.022 215.788 306.588 216.79L307.506 217.188L308.423 217.585C308.728 216.882 309.132 216.399 309.617 216.079L309.065 215.244ZM307.506 217.188L306.589 216.788C306.151 217.793 305.952 218.966 305.952 220.273H306.952H307.952C307.952 219.159 308.122 218.275 308.422 217.587L307.506 217.188ZM306.952 220.273H305.952C305.952 221.61 306.149 222.801 306.589 223.809L307.506 223.409L308.422 223.009C308.124 222.324 307.952 221.425 307.952 220.273H306.952ZM307.506 223.409L306.591 223.814C307.032 224.81 307.673 225.614 308.532 226.167L309.074 225.327L309.615 224.486C309.134 224.176 308.729 223.702 308.42 223.004L307.506 223.409ZM309.074 225.327L308.532 226.167C309.381 226.714 310.349 226.974 311.401 226.974V225.974V224.974C310.691 224.974 310.108 224.803 309.615 224.486L309.074 225.327ZM311.401 225.974V226.974C311.983 226.974 312.542 226.897 313.07 226.733L312.773 225.778L312.476 224.823C312.163 224.921 311.806 224.974 311.401 224.974V225.974ZM312.773 225.778L313.066 226.734C313.596 226.572 314.081 226.33 314.511 226.004L313.906 225.207L313.302 224.411C313.073 224.584 312.802 224.723 312.48 224.822L312.773 225.778ZM313.906 225.207L314.519 225.997C314.949 225.664 315.305 225.259 315.584 224.789L314.724 224.278L313.865 223.768C313.712 224.025 313.522 224.24 313.293 224.417L313.906 225.207ZM314.724 224.278L315.578 224.799C315.87 224.319 316.064 223.787 316.168 223.214L315.185 223.034L314.201 222.854C314.135 223.213 314.022 223.51 313.87 223.758L314.724 224.278ZM315.185 223.034L315.18 224.034L318.913 224.051L318.918 223.051L318.922 222.051L315.189 222.034L315.185 223.034ZM318.918 223.051L317.925 222.931C317.843 223.609 317.639 224.266 317.306 224.909L318.193 225.369L319.081 225.83C319.52 224.984 319.799 224.096 319.91 223.171L318.918 223.051ZM318.193 225.369L317.304 224.911C316.982 225.537 316.543 226.104 315.98 226.613L316.651 227.355L317.321 228.097C318.053 227.435 318.643 226.678 319.082 225.827L318.193 225.369ZM316.651 227.355L315.981 226.613C315.439 227.101 314.781 227.5 313.992 227.802L314.349 228.736L314.706 229.67C315.702 229.29 316.578 228.768 317.321 228.097L316.651 227.355ZM314.349 228.736L313.996 227.8C313.241 228.086 312.361 228.239 311.341 228.239V229.239V230.239C312.56 230.239 313.685 230.056 314.703 229.671L314.349 228.736ZM311.341 229.239V228.239C309.941 228.239 308.724 227.924 307.663 227.315L307.165 228.182L306.667 229.049C308.061 229.849 309.627 230.239 311.341 230.239V229.239ZM307.165 228.182L307.664 227.316C306.617 226.712 305.779 225.835 305.15 224.653L304.267 225.122L303.384 225.592C304.176 227.08 305.269 228.243 306.665 229.048L307.165 228.182ZM304.267 225.122L305.151 224.655C304.54 223.496 304.21 222.049 304.21 220.273H303.21H302.21C302.21 222.292 302.585 224.077 303.383 225.589L304.267 225.122ZM303.21 220.273H304.21C304.21 218.493 304.545 217.045 305.165 215.887L304.284 215.415L303.403 214.942C302.591 216.455 302.21 218.246 302.21 220.273H303.21ZM304.284 215.415L305.165 215.887C305.799 214.705 306.642 213.832 307.694 213.233L307.199 212.364L306.704 211.495C305.301 212.293 304.201 213.454 303.403 214.942L304.284 215.415ZM307.199 212.364L307.697 213.231C308.76 212.621 309.966 212.307 311.341 212.307V211.307V210.307C309.647 210.307 308.092 210.698 306.701 211.496L307.199 212.364ZM311.341 211.307V212.307C312.258 212.307 313.089 212.435 313.841 212.683L314.153 211.733L314.466 210.783C313.491 210.462 312.447 210.307 311.341 210.307V211.307ZM314.153 211.733L313.843 212.683C314.602 212.932 315.262 213.289 315.832 213.753L316.463 212.977L317.094 212.202C316.323 211.574 315.443 211.102 314.464 210.782L314.153 211.733ZM316.463 212.977L315.836 213.756C316.398 214.209 316.859 214.766 317.218 215.436L318.099 214.963L318.981 214.49C318.499 213.592 317.869 212.825 317.09 212.198L316.463 212.977ZM318.099 214.963L317.221 215.441C317.578 216.098 317.818 216.871 317.925 217.773L318.918 217.656L319.911 217.539C319.779 216.419 319.473 215.396 318.978 214.486L318.099 214.963ZM324.444 229H323.444V230H324.444V229ZM324.444 211.545V210.545H323.444V211.545H324.444ZM328.134 211.545H329.134V210.545H328.134V211.545ZM328.134 218.747H327.134V219.747H328.134V218.747ZM335.626 218.747V219.747H336.626V218.747H335.626ZM335.626 211.545V210.545H334.626V211.545H335.626ZM339.308 211.545H340.308V210.545H339.308V211.545ZM339.308 229V230H340.308V229H339.308ZM335.626 229H334.626V230H335.626V229ZM335.626 221.79H336.626V220.79H335.626V221.79ZM328.134 221.79V220.79H327.134V221.79H328.134ZM328.134 229V230H329.134V229H328.134ZM324.444 229H325.444V211.545H324.444H323.444V229H324.444ZM324.444 211.545V212.545H328.134V211.545V210.545H324.444V211.545ZM328.134 211.545H327.134V218.747H328.134H329.134V211.545H328.134ZM328.134 218.747V219.747H335.626V218.747V217.747H328.134V218.747ZM335.626 218.747H336.626V211.545H335.626H334.626V218.747H335.626ZM335.626 211.545V212.545H339.308V211.545V210.545H335.626V211.545ZM339.308 211.545H338.308V229H339.308H340.308V211.545H339.308ZM339.308 229V228H335.626V229V230H339.308V229ZM335.626 229H336.626V221.79H335.626H334.626V229H335.626ZM335.626 221.79V220.79H328.134V221.79V222.79H335.626V221.79ZM328.134 221.79H327.134V229H328.134H329.134V221.79H328.134ZM328.134 229V228H324.444V229V230H328.134V229ZM348.921 211.545H349.921V210.545H348.921V211.545ZM348.921 229V230H349.921V229H348.921ZM345.23 229H344.23V230H345.23V229ZM345.23 211.545V210.545H344.23V211.545H345.23ZM348.921 211.545H347.921V229H348.921H349.921V211.545H348.921ZM348.921 229V228H345.23V229V230H348.921V229ZM345.23 229H346.23V211.545H345.23H344.23V229H345.23ZM345.23 211.545V212.545H348.921V211.545V210.545H345.23V211.545ZM354.837 229H353.837V230H354.837V229ZM354.837 211.545V210.545H353.837V211.545H354.837ZM358.527 211.545H359.527V210.545H358.527V211.545ZM358.527 225.957H357.527V226.957H358.527V225.957ZM366.01 225.957H367.01V224.957H366.01V225.957ZM366.01 229V230H367.01V229H366.01ZM354.837 229H355.837V211.545H354.837H353.837V229H354.837ZM354.837 211.545V212.545H358.527V211.545V210.545H354.837V211.545ZM358.527 211.545H357.527V225.957H358.527H359.527V211.545H358.527ZM358.527 225.957V226.957H366.01V225.957V224.957H358.527V225.957ZM366.01 225.957H365.01V229H366.01H367.01V225.957H366.01ZM366.01 229V228H354.837V229V230H366.01V229ZM371.334 229H370.334V230H371.334V229ZM371.334 211.545V210.545H370.334V211.545H371.334ZM375.024 211.545H376.024V210.545H375.024V211.545ZM375.024 225.957H374.024V226.957H375.024V225.957ZM382.507 225.957H383.507V224.957H382.507V225.957ZM382.507 229V230H383.507V229H382.507ZM371.334 229H372.334V211.545H371.334H370.334V229H371.334ZM371.334 211.545V212.545H375.024V211.545V210.545H371.334V211.545ZM375.024 211.545H374.024V225.957H375.024H376.024V211.545H375.024ZM375.024 225.957V226.957H382.507V225.957V224.957H375.024V225.957ZM382.507 225.957H381.507V229H382.507H383.507V225.957H382.507ZM382.507 229V228H371.334V229V230H382.507V229ZM396.266 229H395.266V230H396.266V229ZM396.266 211.545V210.545H395.266V211.545H396.266ZM399.956 211.545H400.956V210.545H399.956V211.545ZM399.956 218.747H398.956V219.747H399.956V218.747ZM407.448 218.747V219.747H408.448V218.747H407.448ZM407.448 211.545V210.545H406.448V211.545H407.448ZM411.129 211.545H412.129V210.545H411.129V211.545ZM411.129 229V230H412.129V229H411.129ZM407.448 229H406.448V230H407.448V229ZM407.448 221.79H408.448V220.79H407.448V221.79ZM399.956 221.79V220.79H398.956V221.79H399.956ZM399.956 229V230H400.956V229H399.956ZM396.266 229H397.266V211.545H396.266H395.266V229H396.266ZM396.266 211.545V212.545H399.956V211.545V210.545H396.266V211.545ZM399.956 211.545H398.956V218.747H399.956H400.956V211.545H399.956ZM399.956 218.747V219.747H407.448V218.747V217.747H399.956V218.747ZM407.448 218.747H408.448V211.545H407.448H406.448V218.747H407.448ZM407.448 211.545V212.545H411.129V211.545V210.545H407.448V211.545ZM411.129 211.545H410.129V229H411.129H412.129V211.545H411.129ZM411.129 229V228H407.448V229V230H411.129V229ZM407.448 229H408.448V221.79H407.448H406.448V229H407.448ZM407.448 221.79V220.79H399.956V221.79V222.79H407.448V221.79ZM399.956 221.79H398.956V229H399.956H400.956V221.79H399.956ZM399.956 229V228H396.266V229V230H399.956V229ZM432.009 225.131L431.13 224.655L431.128 224.658L432.009 225.131ZM429.078 228.19L429.571 229.06L429.572 229.06L429.078 228.19ZM420.742 228.182L421.239 227.314L420.742 228.182ZM417.819 225.122L416.938 225.595L416.938 225.595L417.819 225.122ZM417.819 215.415L418.7 215.887L418.7 215.887L417.819 215.415ZM420.742 212.364L421.236 213.234L421.239 213.232L420.742 212.364ZM429.078 212.364L428.581 213.232L428.586 213.235L429.078 212.364ZM432.009 215.415L431.128 215.887L431.13 215.89L432.009 215.415ZM428.796 217.153L427.878 217.548L427.88 217.553L428.796 217.153ZM427.254 215.227L426.704 216.063L426.704 216.063L427.254 215.227ZM422.583 215.227L423.133 216.063L423.133 216.063L422.583 215.227ZM421.032 217.153L420.116 216.754L420.113 216.759L421.032 217.153ZM421.032 223.392L420.113 223.787L420.116 223.792L421.032 223.392ZM422.583 225.318L423.133 224.483L423.133 224.483L422.583 225.318ZM427.254 225.318L426.704 224.483L426.704 224.483L427.254 225.318ZM428.796 223.392L427.88 222.992L427.878 222.997L428.796 223.392ZM433.092 220.273H432.092C432.092 222.052 431.755 223.499 431.13 224.655L432.009 225.131L432.889 225.606C433.707 224.092 434.092 222.301 434.092 220.273H433.092ZM432.009 225.131L431.128 224.658C430.495 225.838 429.648 226.716 428.583 227.321L429.078 228.19L429.572 229.06C430.985 228.256 432.092 227.094 432.891 225.603L432.009 225.131ZM429.078 228.19L428.585 227.32C427.515 227.927 426.301 228.239 424.919 228.239V229.239V230.239C426.616 230.239 428.175 229.852 429.571 229.06L429.078 228.19ZM424.919 229.239V228.239C423.525 228.239 422.307 227.924 421.239 227.314L420.742 228.182L420.246 229.05C421.644 229.849 423.21 230.239 424.919 230.239V229.239ZM420.742 228.182L421.239 227.314C420.18 226.708 419.334 225.831 418.7 224.65L417.819 225.122L416.938 225.595C417.736 227.084 418.839 228.246 420.246 229.05L420.742 228.182ZM417.819 225.122L418.7 224.65C418.08 223.492 417.745 222.046 417.745 220.273H416.745H415.745C415.745 222.294 416.127 224.082 416.938 225.595L417.819 225.122ZM416.745 220.273H417.745C417.745 218.493 418.08 217.045 418.7 215.887L417.819 215.415L416.938 214.942C416.126 216.455 415.745 218.246 415.745 220.273H416.745ZM417.819 215.415L418.7 215.887C419.333 214.707 420.178 213.833 421.236 213.234L420.742 212.364L420.249 211.494C418.841 212.292 417.737 213.453 416.938 214.942L417.819 215.415ZM420.742 212.364L421.239 213.232C422.307 212.622 423.525 212.307 424.919 212.307V211.307V210.307C423.21 210.307 421.644 210.697 420.246 211.495L420.742 212.364ZM424.919 211.307V212.307C426.299 212.307 427.512 212.621 428.581 213.232L429.078 212.364L429.574 211.495C428.177 210.697 426.617 210.307 424.919 210.307V211.307ZM429.078 212.364L428.586 213.235C429.649 213.834 430.496 214.708 431.128 215.887L432.009 215.415L432.891 214.942C432.091 213.451 430.984 212.291 429.569 211.493L429.078 212.364ZM432.009 215.415L431.13 215.89C431.755 217.047 432.092 218.494 432.092 220.273H433.092H434.092C434.092 218.245 433.707 216.453 432.889 214.939L432.009 215.415ZM429.35 220.273H430.35C430.35 218.946 430.152 217.761 429.713 216.754L428.796 217.153L427.88 217.553C428.179 218.239 428.35 219.134 428.35 220.273H429.35ZM428.796 217.153L429.715 216.759C429.287 215.761 428.656 214.953 427.804 214.392L427.254 215.227L426.704 216.063C427.181 216.376 427.579 216.852 427.878 217.548L428.796 217.153ZM427.254 215.227L427.804 214.392C426.956 213.834 425.982 213.571 424.919 213.571V214.571V215.571C425.64 215.571 426.222 215.745 426.704 216.063L427.254 215.227ZM424.919 214.571V213.571C423.856 213.571 422.881 213.834 422.034 214.392L422.583 215.227L423.133 216.063C423.615 215.745 424.197 215.571 424.919 215.571V214.571ZM422.583 215.227L422.034 214.392C421.182 214.952 420.55 215.759 420.116 216.754L421.032 217.153L421.949 217.553C422.253 216.855 422.655 216.377 423.133 216.063L422.583 215.227ZM421.032 217.153L420.113 216.759C419.681 217.765 419.487 218.947 419.487 220.273H420.487H421.487C421.487 219.132 421.656 218.235 421.951 217.548L421.032 217.153ZM420.487 220.273H419.487C419.487 221.598 419.681 222.781 420.113 223.787L421.032 223.392L421.951 222.997C421.656 222.31 421.487 221.413 421.487 220.273H420.487ZM421.032 223.392L420.116 223.792C420.55 224.787 421.182 225.593 422.034 226.154L422.583 225.318L423.133 224.483C422.655 224.168 422.253 223.69 421.949 222.992L421.032 223.392ZM422.583 225.318L422.034 226.154C422.881 226.711 423.856 226.974 424.919 226.974V225.974V224.974C424.197 224.974 423.615 224.8 423.133 224.483L422.583 225.318ZM424.919 225.974V226.974C425.982 226.974 426.956 226.711 427.804 226.154L427.254 225.318L426.704 224.483C426.222 224.8 425.64 224.974 424.919 224.974V225.974ZM427.254 225.318L427.804 226.154C428.656 225.592 429.287 224.784 429.715 223.787L428.796 223.392L427.878 222.997C427.579 223.693 427.181 224.169 426.704 224.483L427.254 225.318ZM428.796 223.392L429.713 223.792C430.152 222.785 430.35 221.6 430.35 220.273H429.35H428.35C428.35 221.412 428.179 222.306 427.88 222.992L428.796 223.392ZM437.244 214.588H436.244V215.588H437.244V214.588ZM437.244 211.545V210.545H436.244V211.545H437.244ZM451.579 211.545H452.579V210.545H451.579V211.545ZM451.579 214.588V215.588H452.579V214.588H451.579ZM446.235 214.588V213.588H445.235V214.588H446.235ZM446.235 229V230H447.235V229H446.235ZM442.588 229H441.588V230H442.588V229ZM442.588 214.588H443.588V213.588H442.588V214.588ZM437.244 214.588H438.244V211.545H437.244H436.244V214.588H437.244ZM437.244 211.545V212.545H451.579V211.545V210.545H437.244V211.545ZM451.579 211.545H450.579V214.588H451.579H452.579V211.545H451.579ZM451.579 214.588V213.588H446.235V214.588V215.588H451.579V214.588ZM446.235 214.588H445.235V229H446.235H447.235V214.588H446.235ZM446.235 229V228H442.588V229V230H446.235V229ZM442.588 229H443.588V214.588H442.588H441.588V229H442.588ZM442.588 214.588V213.588H437.244V214.588V215.588H442.588V214.588ZM456.82 229H455.82V230H456.82V229ZM456.82 211.545V210.545H455.82V211.545H456.82ZM468.581 211.545H469.581V210.545H468.581V211.545ZM468.581 214.588V215.588H469.581V214.588H468.581ZM460.51 214.588V213.588H459.51V214.588H460.51ZM460.51 218.747H459.51V219.747H460.51V218.747ZM467.976 218.747H468.976V217.747H467.976V218.747ZM467.976 221.79V222.79H468.976V221.79H467.976ZM460.51 221.79V220.79H459.51V221.79H460.51ZM460.51 225.957H459.51V226.957H460.51V225.957ZM468.615 225.957H469.615V224.957H468.615V225.957ZM468.615 229V230H469.615V229H468.615ZM456.82 229H457.82V211.545H456.82H455.82V229H456.82ZM456.82 211.545V212.545H468.581V211.545V210.545H456.82V211.545ZM468.581 211.545H467.581V214.588H468.581H469.581V211.545H468.581ZM468.581 214.588V213.588H460.51V214.588V215.588H468.581V214.588ZM460.51 214.588H459.51V218.747H460.51H461.51V214.588H460.51ZM460.51 218.747V219.747H467.976V218.747V217.747H460.51V218.747ZM467.976 218.747H466.976V221.79H467.976H468.976V218.747H467.976ZM467.976 221.79V220.79H460.51V221.79V222.79H467.976V221.79ZM460.51 221.79H459.51V225.957H460.51H461.51V221.79H460.51ZM460.51 225.957V226.957H468.615V225.957V224.957H460.51V225.957ZM468.615 225.957H467.615V229H468.615H469.615V225.957H468.615ZM468.615 229V228H456.82V229V230H468.615V229ZM474.395 229H473.395V230H474.395V229ZM474.395 211.545V210.545H473.395V211.545H474.395ZM478.086 211.545H479.086V210.545H478.086V211.545ZM478.086 225.957H477.086V226.957H478.086V225.957ZM485.568 225.957H486.568V224.957H485.568V225.957ZM485.568 229V230H486.568V229H485.568ZM474.395 229H475.395V211.545H474.395H473.395V229H474.395ZM474.395 211.545V212.545H478.086V211.545V210.545H474.395V211.545ZM478.086 211.545H477.086V225.957H478.086H479.086V211.545H478.086ZM478.086 225.957V226.957H485.568V225.957V224.957H478.086V225.957ZM485.568 225.957H484.568V229H485.568H486.568V225.957H485.568ZM485.568 229V228H474.395V229V230H485.568V229Z" fill="black" mask="url(#path-16-outside-1_543_941)"/>
</svg>
